<?xml version="1.0" encoding="UTF-8" standalone="no"?>
<!-- Created with Inkscape (http://www.inkscape.org/) -->

<svg
   xmlns:dc="http://purl.org/dc/elements/1.1/"
   xmlns:cc="http://creativecommons.org/ns#"
   xmlns:rdf="http://www.w3.org/1999/02/22-rdf-syntax-ns#"
   xmlns:svg="http://www.w3.org/2000/svg"
   xmlns="http://www.w3.org/2000/svg"
   xmlns:sodipodi="http://sodipodi.sourceforge.net/DTD/sodipodi-0.dtd"
   xmlns:inkscape="http://www.inkscape.org/namespaces/inkscape"
   id="svg4398"
   version="1.1"
   inkscape:version="0.91 r13725"
   width="450"
   height="457"
   viewBox="0 0 450 457"
   sodipodi:docname="work2nd.svg">
  <metadata
     id="metadata4404">
    <rdf:RDF>
      <cc:Work
         rdf:about="">
        <dc:format>image/svg+xml</dc:format>
        <dc:type
           rdf:resource="http://purl.org/dc/dcmitype/StillImage" />
        <dc:title />
      </cc:Work>
    </rdf:RDF>
  </metadata>
  <defs
     id="defs4402">
    <inkscape:path-effect
       effect="spiro"
       id="path-effect9986"
       is_visible="true" />
    <inkscape:path-effect
       effect="spiro"
       id="path-effect9395"
       is_visible="true" />
    <inkscape:path-effect
       effect="spiro"
       id="path-effect9391"
       is_visible="true" />
    <inkscape:path-effect
       effect="spiro"
       id="path-effect9387"
       is_visible="true" />
    <inkscape:path-effect
       effect="spiro"
       id="path-effect9382"
       is_visible="true" />
  </defs>
  <sodipodi:namedview
     pagecolor="#ffffff"
     bordercolor="#666666"
     borderopacity="1"
     objecttolerance="10"
     gridtolerance="10"
     guidetolerance="10"
     inkscape:pageopacity="0"
     inkscape:pageshadow="2"
     inkscape:window-width="1366"
     inkscape:window-height="705"
     id="namedview4400"
     showgrid="false"
     inkscape:zoom="1.155516"
     inkscape:cx="300.89035"
     inkscape:cy="197.40783"
     inkscape:window-x="-8"
     inkscape:window-y="-8"
     inkscape:window-maximized="1"
     inkscape:current-layer="layer1"
     inkscape:snap-others="false"
     inkscape:snap-nodes="false" />
  <g
     inkscape:groupmode="layer"
     id="layer7"
     inkscape:label="Layer 2"
     style="display:inline">
    <path
       style="fill:none;fill-rule:evenodd;stroke:#000000;stroke-width:1.77165354;stroke-linecap:butt;stroke-linejoin:miter;stroke-miterlimit:4;stroke-dasharray:none;stroke-opacity:1"
       d="m 196,270 14,20 -7,25"
       id="path9385"
       inkscape:path-effect="#path-effect9387"
       inkscape:original-d="m 196,270 c 2.52433,9.39023 8.69483,16.57781 14,20 l -7,25"
       inkscape:connector-curvature="0"
       sodipodi:nodetypes="ccc" />
    <path
       style="fill:none;fill-rule:evenodd;stroke:#000000;stroke-width:1.77165354;stroke-linecap:butt;stroke-linejoin:miter;stroke-miterlimit:4;stroke-dasharray:none;stroke-opacity:1"
       d="M 234.86567,315.73134 224,289 236,276"
       id="path9389"
       inkscape:path-effect="#path-effect9391"
       inkscape:original-d="M 234.86567,315.73134 C 240.12452,302.26481 242.29779,298.90854 224,289 l 12,-13"
       inkscape:connector-curvature="0"
       sodipodi:nodetypes="ccc" />
    <path
       style="fill:none;fill-rule:evenodd;stroke:#000000;stroke-width:1.77165354;stroke-linecap:butt;stroke-linejoin:miter;stroke-miterlimit:4;stroke-dasharray:none;stroke-opacity:1"
       d="m 225,289 -16.13433,1"
       id="path9393"
       inkscape:path-effect="#path-effect9395"
       inkscape:original-d="m 225,289 c -3.94417,1.48048 -6.69705,3.914 -16.13433,1"
       inkscape:connector-curvature="0"
       sodipodi:nodetypes="cc" />
    <path
       style="fill:#ffd2b0;fill-opacity:1;fill-rule:evenodd;stroke:#000000;stroke-width:1.77165353;stroke-miterlimit:4;stroke-dasharray:none;stroke-opacity:0"
       d="m 214.25207,104.00243 c -5.77339,-0.11128 -11.4321,3.4547 -12.21289,9.49609 -3.19692,16.88706 -16.31285,32.40249 -33.97851,34.53906 -5.66519,1.48664 -13.49354,-1.6341 -16.13477,5.31641 -11.40351,14.55433 -16.3294,36.21242 -5.5918,52.53711 13.71972,22.06404 41.34601,32.22123 66.5254,30.01367 23.26502,-0.74336 48.59223,-8.56149 62.00976,-28.94531 12.79554,-18.64419 8.87842,-43.42368 -0.15039,-62.67774 -20.189,3.22731 -41.64376,-10.85711 -46.66406,-30.5625 -0.84183,-6.28114 -7.64196,-10.77268 -13.80274,-9.71679 z"
       id="path5846"
       inkscape:connector-curvature="0" />
    <path
       style="fill:#ffd2b0;fill-opacity:1;fill-rule:evenodd;stroke:#000000;stroke-width:1.77165353;stroke-miterlimit:4;stroke-dasharray:none;stroke-opacity:0"
       d="m 341.64856,98.801255 c -11.63425,0.872568 -20.09575,9.805285 -28.23047,17.074215 -2.39664,1.06432 0.94146,-3.65371 -2.22852,-3.01757 -2.71071,-0.56415 -6.33887,-0.0183 -6.01562,3.49804 -4.70099,11.75476 -13.14207,22.68972 -25.62448,26.68276 -5.64442,1.05202 0.8585,6.11722 1.04166,9.5105 4.39017,13.93226 6.36522,29.57409 2.42657,43.63487 8.38664,-0.98673 15.64585,3.82193 22.70117,7.36328 3.7463,-1.35067 2.61058,-7.13129 4.125,-10.19336 -0.13076,-1.31278 2.24494,-4.79491 2.5,-1.93945 0.0866,5.26873 -3.9267,10.57678 -3.1767,15.40156 8.17297,9.47255 15.58068,23.45029 8.78998,35.65508 -6.7808,-0.19922 -13.94891,-3.61227 -20.60937,-2.03125 -1.55536,3.74405 -0.1172,8.48918 -2.41016,12.24219 -1.78555,4.06848 -4.33701,9.71955 -8.65126,10.7246 -7.64464,-1.88764 -15.48786,-5.3989 -23.12218,-6.24023 -0.60065,3.99262 -1.10122,8.29288 -0.96679,12.17578 26.61847,-2.26788 53.5989,-1.33259 80.13476,-2.62109 -0.29107,-34.56565 -1.86028,-69.47467 -11.29101,-102.93946 -2.42256,-10.82769 -6.43474,-21.37807 -9.21485,-31.99609 4.96209,1.10794 9.96396,4.37114 15.48438,3.25977 9.97716,-0.59867 22.43563,-7.699 21.20508,-19.12696 -1.62178,-7.93362 -7.97608,-17.105192 -16.86719,-17.117185 z m 0.7793,8.593745 c 3.10211,0.55779 -0.93125,3.04301 -2.38672,2.61524 -1.75593,0.78382 -6.62632,-0.0901 -6.66797,2.41797 1.49686,2.81981 7.1594,5.03682 5.93945,8.58008 -3.4197,-1.34178 -5.70741,-7.05573 -9.72461,-6.10157 -1.96543,1.85274 0.50142,7.64683 -2.94726,7.2461 -2.56981,-6.8341 4.13533,-13.4166 10.76757,-14.01758 1.65044,-0.35184 3.32807,-0.6956 5.01954,-0.74024 z"
       id="path5848"
       inkscape:connector-curvature="0" />
    <path
       style="fill:#ffd2b0;fill-opacity:1;fill-rule:evenodd;stroke:#000000;stroke-width:1.77165353;stroke-miterlimit:4;stroke-dasharray:none;stroke-opacity:0"
       d="m 214.50989,92.928208 c -3.93712,0.557588 2.4576,2.187184 1.88671,0.318359 -0.56858,-0.314443 -1.25112,-0.355426 -1.88671,-0.318359 z"
       id="path5850"
       inkscape:connector-curvature="0" />
    <path
       style="fill:#ffd2b0;fill-opacity:1;fill-rule:evenodd;stroke:#000000;stroke-width:1.77165353;stroke-miterlimit:4;stroke-dasharray:none;stroke-opacity:0"
       d="m 212.59192,59.318833 c -13.43451,0.498338 -27.98243,2.209751 -39.6875,8.423828 14.35564,3.49822 23.85744,16.594271 28.82226,29.656249 5.04111,-0.855059 9.69575,-5.300878 15.33985,-3.978515 3.42387,-0.110307 7.01367,3.063876 10.26172,1.892578 3.14467,-9.107691 6.64381,-18.842308 15.27929,-24.25 1.98608,-2.211762 6.97618,-2.652129 7.67774,-5.52539 -12.0664,-3.735741 -25.00865,-6.226236 -37.69336,-6.21875 z"
       id="path5852"
       inkscape:connector-curvature="0" />
    <path
       style="fill:#ffd2b0;fill-opacity:1;fill-rule:evenodd;stroke:#000000;stroke-width:1.77165353;stroke-miterlimit:4;stroke-dasharray:none;stroke-opacity:0"
       d="m 85.115355,102.2329 c -11.771992,-0.0965 -21.511565,13.50114 -17.400391,24.47656 6.752174,10.58142 21.647708,11.92939 32.787106,8.99609 1.09494,-0.98543 3.83822,-2.47394 3.36719,0.23633 -3.33837,10.01483 -7.223009,19.96363 -9.102712,30.45555 -8.370806,33.8854 -7.553983,69.28319 -8.227365,103.78664 26.850377,-0.43452 53.808417,0.92066 80.597657,-0.84766 2.04145,-1.49253 -1.9535,-5.31583 -1.58008,-7.41406 -1.23966,-1.73604 -0.65918,-7.56818 -4.09961,-5.30078 -6.44352,2.16963 -12.88708,4.97782 -19.22461,7.04883 -4.82878,-8.60881 -12.42245,-16.74605 -11.89648,-27.25782 -0.53305,-3.89425 -5.86876,0.40551 -8.17859,0.0218 -4.20553,0.54825 -8.7304,2.94402 -12.76868,2.88444 -0.45641,-10.40259 -0.78768,-22.2701 5.47266,-31.2207 2.02895,-3.35224 8.75761,-4.86249 4.61299,-9.47195 -2.96066,-5.41003 -3.16446,-11.95023 -5.65205,-17.38938 -4.28609,0.76417 -6.71525,6.45899 -10.65821,7.22656 0.35867,-4.77088 6.2923,-7.28714 9.87891,-9.67578 3.65751,-1.41774 9.54797,-2.43875 12.57422,0.29297 -2.97574,2.15435 -11.0184,-1.99194 -8.64245,3.89683 1.28028,5.90891 2.61593,12.42287 6.13659,17.32387 5.46482,0.003 10.64311,-3.18131 15.69336,-4.77343 -2.22303,-14.14782 0.89152,-28.81835 9.29883,-40.45703 0.88705,-2.1685 4.728,-4.98936 3.51172,-7.28516 -14.23902,-3.77056 -26.08501,-16.26128 -27.65235,-31.16016 -1.01428,-5.92329 -9.20645,-4.78022 -13.37634,-6.70559 -2.36497,0.28711 2.84505,4.2826 3.6947,6.41067 2.08216,2.80164 -1.51674,1.28138 -2.44336,-0.0254 -7.18907,-7.06923 -16.163125,-13.93651 -26.722655,-14.07226 z m 1.154296,8.8125 c 7.518648,-0.8895 13.992929,5.33006 14.373049,12.68164 -1.461243,2.9433 -3.206738,-1.71529 -2.820314,-3.31836 -1.671912,-4.67122 -7.409157,-0.91349 -9.261719,1.70507 -1.299208,2.26992 -3.861816,1.08953 -1.701172,-1.02929 1.782893,-2.65173 5.38726,-4.04609 7.302735,-6.2461 -3.222825,-2.38274 -7.634612,-0.96843 -10.828125,-2.58789 -0.263715,-1.27868 2.188251,-1.11382 2.935546,-1.20507 z"
       id="path5854"
       inkscape:connector-curvature="0" />
    <path
       style="fill:#ffd2b0;fill-opacity:1;fill-rule:evenodd;stroke:#000000;stroke-width:1.77165353;stroke-miterlimit:4;stroke-dasharray:none;stroke-opacity:0"
       d="m 422.35364,163.21532 c -12.84763,4.37065 -17.80863,18.67338 -23.7793,29.56445 -2.70289,5.92598 -6.32437,11.8905 -7.56836,18.19531 7.2379,0.10526 14.05187,3.34162 20.7832,4.96289 5.41368,-5.77663 5.47129,-14.32594 10.93164,-20.00195 6.37888,-7.89146 8.41627,-19.13117 5.80079,-28.76758 -1.53841,-1.82965 -3.60622,-3.92026 -6.16797,-3.95312 z"
       id="path5856"
       inkscape:connector-curvature="0" />
    <path
       style="fill:#ffd2b0;fill-opacity:1;fill-rule:evenodd;stroke:#000000;stroke-width:1.77165353;stroke-miterlimit:4;stroke-dasharray:none;stroke-opacity:0"
       d="m 424.02161,202.7993 c -5.79513,2.1655 -5.96945,10.45115 -10.35352,14.29297 2.87181,4.21853 9.79863,9.08561 6.05664,14.90625 -1.35534,2.56308 -8.02128,5.25242 -1.89453,5.75195 2.26395,0.15212 2.48684,4.39184 -0.18945,2.39844 -9.00034,-4.71103 -20.46017,-2.76583 -28.42774,-9.79101 -0.59969,-1.99705 4.35136,0.44707 5.25,0.63867 6.78145,2.80531 16.46984,6.44933 22.75,0.83008 3.66784,-6.10633 -3.74309,-11.89521 -8.79297,-14.02735 -6.22578,-3.1351 -13.21933,-4.39715 -20.02539,-5.31836 -5.8595,5.65121 -11.78146,14.87393 -6.2168,22.74219 6.71645,9.79431 18.11371,15.49968 29.01563,19.38281 8.11137,1.56248 18.53275,0.0303 23.20898,-7.23633 -5.11263,-0.86101 -10.92346,-3.50994 -13.32226,-8.23828 3.88542,-8.46543 12.19402,-15.02216 13.7793,-24.42968 0.31413,-6.22798 -4.1657,-12.4392 -10.83789,-11.90235 z"
       id="path5858"
       inkscape:connector-curvature="0" />
    <path
       style="fill:#ffd2b0;fill-opacity:1;fill-rule:evenodd;stroke:#000000;stroke-width:1.77165353;stroke-miterlimit:4;stroke-dasharray:none;stroke-opacity:0"
       d="m 440.31457,217.80516 c -7.71194,4.71333 -11.60472,13.86789 -16.80609,20.98472 1.98135,3.17433 7.9966,7.95922 12.25531,4.20278 6.88774,-4.29535 13.58143,-12.98138 9.13282,-21.26562 -0.87492,-1.77457 -2.31968,-4.05096 -4.58204,-3.92188 z"
       id="path5860"
       inkscape:connector-curvature="0" />
  </g>
  <g
     inkscape:groupmode="layer"
     id="layer8"
     inkscape:label="Layer 3"
     style="display:inline">
    <path
       style="display:inline;fill:none;fill-rule:evenodd;stroke:#000000;stroke-width:1.77165354;stroke-linecap:butt;stroke-linejoin:miter;stroke-miterlimit:4;stroke-dasharray:none;stroke-opacity:1"
       d="m 247.06157,21.622327 c -1.62026,2.308308 -6.10596,16.991412 -6.10596,16.991412 -0.0202,-0.0153 19.59868,5.74697 25.91472,15.942256 2.42239,3.910218 9.74591,-19.333229 -19.80876,-32.933668 z"
       id="path3428"
       inkscape:connector-curvature="0"
       sodipodi:nodetypes="ccsc" />
    <path
       style="display:inline;fill:none;fill-rule:evenodd;stroke:#000000;stroke-width:1.77165354;stroke-linecap:butt;stroke-linejoin:miter;stroke-miterlimit:4;stroke-dasharray:none;stroke-opacity:1"
       d="M 188.15311,39.380837 182.5286,24.173232 c -18.53396,4.687183 -25.55698,15.934625 -23.25187,32.498305 7.0698,-5.609267 16.38771,-11.35426 28.87638,-17.2907 z"
       id="path4250"
       inkscape:connector-curvature="0"
       sodipodi:nodetypes="cccc" />
    <path
       style="display:inline;fill:none;fill-rule:evenodd;stroke:#000000;stroke-width:1.77165354;stroke-linecap:butt;stroke-linejoin:miter;stroke-miterlimit:4;stroke-dasharray:none;stroke-opacity:1"
       d="m 228.02545,110.05311 c -6.01268,-12.660962 -25.93121,-6.83636 -26.62432,0.42707"
       id="path4252"
       inkscape:connector-curvature="0"
       sodipodi:nodetypes="cc" />
    <path
       style="display:inline;fill:none;fill-rule:evenodd;stroke:#000000;stroke-width:1.77165354;stroke-linecap:butt;stroke-linejoin:miter;stroke-miterlimit:4;stroke-dasharray:none;stroke-opacity:1"
       d="m 227.7437,98.132754 c -9.74164,-5.0089 -18.20636,-6.021316 -26.41278,2.760846"
       id="path4254"
       inkscape:connector-curvature="0"
       sodipodi:nodetypes="cc" />
    <path
       style="display:inline;fill:none;fill-rule:evenodd;stroke:#000000;stroke-width:1.77165354;stroke-linecap:butt;stroke-linejoin:miter;stroke-miterlimit:4;stroke-dasharray:none;stroke-opacity:1"
       d="m 257.42444,108.07383 c -3.29443,4.10534 -7.0789,6.63031 -11.83047,0.98902 -2.24176,-12.352138 13.60085,-11.372736 11.83047,-0.98902 z"
       id="path4256"
       inkscape:connector-curvature="0"
       sodipodi:nodetypes="ccc" />
    <path
       style="display:inline;fill:none;fill-rule:evenodd;stroke:#000000;stroke-width:1.77165353;stroke-linecap:butt;stroke-linejoin:miter;stroke-miterlimit:4;stroke-dasharray:none;stroke-opacity:1"
       d="M 201.33092,100.8936 C 187.79246,48.96048 128.30961,65.768651 124.5187,101.42642 m -0.0338,11.20814 c 2.73163,46.54576 70.40531,47.93591 76.91618,-2.15437"
       id="path4258"
       inkscape:connector-curvature="0"
       sodipodi:nodetypes="cccc" />
    <path
       style="display:inline;fill:none;fill-rule:evenodd;stroke:#000000;stroke-width:1.77165354;stroke-linecap:butt;stroke-linejoin:miter;stroke-miterlimit:4;stroke-dasharray:none;stroke-opacity:1"
       d="m 343.67342,108.64282 c -8.88199,-0.14736 -18.36377,3.09253 -16.12748,13.50229"
       id="path4260"
       inkscape:connector-curvature="0"
       sodipodi:nodetypes="cc" />
    <path
       style="display:inline;fill:none;fill-rule:evenodd;stroke:#000000;stroke-width:1.77165354;stroke-linecap:butt;stroke-linejoin:miter;stroke-miterlimit:4;stroke-dasharray:none;stroke-opacity:1"
       d="m 313.7748,116.45511 c -2.35449,-1.17106 12.93362,-17.643634 27.47589,-18.920255 7.37908,-0.647787 17.45746,7.902065 18.65336,19.971405 0.24328,8.32276 -5.97713,13.28397 -12.68196,16.21195 -10.80185,5.08448 -19.46473,3.09524 -24.90472,-1.92881"
       id="path4262"
       inkscape:connector-curvature="0"
       sodipodi:nodetypes="csccc" />
    <path
       style="display:inline;fill:none;fill-rule:evenodd;stroke:#000000;stroke-width:1.77165354;stroke-linecap:butt;stroke-linejoin:miter;stroke-miterlimit:4;stroke-dasharray:none;stroke-opacity:1"
       d="m 329.02441,113.62475 c 1.8262,-2.77762 10.94464,6.05702 10.01157,7.47854"
       id="path4264"
       inkscape:connector-curvature="0"
       sodipodi:nodetypes="cc" />
    <path
       style="display:inline;fill:none;fill-rule:evenodd;stroke:#000000;stroke-width:1.77165353;stroke-linecap:butt;stroke-linejoin:miter;stroke-miterlimit:4;stroke-dasharray:none;stroke-opacity:1"
       d="m 338.48141,98.589081 c 2.67232,-6.149162 0.67188,-6.876698 0.65368,-6.881607 l -34.0348,4.317903 m -0.89082,16.863113 c 8.44894,-0.15285 12.82325,-1.4243 12.82325,-1.4243"
       id="path4280"
       inkscape:connector-curvature="0"
       sodipodi:nodetypes="ccccc" />
    <path
       style="display:inline;fill:none;fill-rule:evenodd;stroke:#000000;stroke-width:1.77165354;stroke-linecap:butt;stroke-linejoin:miter;stroke-miterlimit:4;stroke-dasharray:none;stroke-opacity:1"
       d="m 305.03693,112.3485 c -13.04907,49.68086 -73.14794,33.6387 -76.46772,-2.84058"
       id="path4282"
       inkscape:connector-curvature="0"
       sodipodi:nodetypes="cc" />
    <path
       style="display:inline;fill:none;fill-rule:evenodd;stroke:#000000;stroke-width:1.77165354;stroke-linecap:butt;stroke-linejoin:miter;stroke-miterlimit:4;stroke-dasharray:none;stroke-opacity:1"
       d="M 305.72859,96.821912 C 301.13398,72.883057 285.87,64.661511 269.11248,63.738086 c -19.36398,1.172479 -35.465,10.178336 -39.21064,28.330898 l -2.15814,6.063771"
       id="path4284"
       inkscape:connector-curvature="0"
       sodipodi:nodetypes="cccc" />
    <path
       style="display:inline;fill:none;fill-rule:evenodd;stroke:#000000;stroke-width:1.77165354;stroke-linecap:butt;stroke-linejoin:miter;stroke-miterlimit:4;stroke-dasharray:none;stroke-opacity:1"
       d="m 275.80243,144.36041 c 19.18739,37.92398 9.70924,90.7561 -68.28594,93.18585 -44.11504,1.37429 -96.25548,-40.65112 -51.34578,-91.26365"
       id="path4286"
       inkscape:connector-curvature="0"
       sodipodi:nodetypes="csc" />
    <path
       style="display:inline;fill:none;fill-rule:evenodd;stroke:#000000;stroke-width:1.77165354;stroke-linecap:butt;stroke-linejoin:miter;stroke-miterlimit:4;stroke-dasharray:none;stroke-opacity:1"
       d="m 279.01487,65.031089 c 3.31246,-14.339317 22.90986,-24.580392 40.58715,-32.275071 18.07939,-11.82799 43.56631,6.241352 54.25018,12.37927 l -14.27585,1.949164 -30.12833,4.113633 c 22.8643,-3.121827 56.93344,-2.73389 78.17482,37.903733 l -47.87573,-2.471344 c 22.19778,1.57565 40.00571,-2.535242 60.81504,43.030086 l -33.15582,-5.10561 c 8.28367,-6.24166 17.33046,52.88893 10.53021,42.86894 -3.75724,-5.53616 -38.30245,-12.65799 -37.91177,-11.25696 l -21.97191,30.99342"
       id="path4288"
       inkscape:connector-curvature="0"
       sodipodi:nodetypes="cccccccccscc" />
    <path
       style="display:inline;fill:none;fill-rule:evenodd;stroke:#000000;stroke-width:1.77165353;stroke-linecap:butt;stroke-linejoin:miter;stroke-miterlimit:4;stroke-dasharray:none;stroke-opacity:1"
       d="M 124.92815,101.26801 86.154813,94.072703 c -2.692746,2.75986 -2.898812,4.257401 1.659631,7.146237"
       id="path4292"
       inkscape:connector-curvature="0"
       sodipodi:nodetypes="ccc" />
    <path
       style="display:inline;fill:none;fill-rule:evenodd;stroke:#000000;stroke-width:1.77165354;stroke-linecap:butt;stroke-linejoin:miter;stroke-miterlimit:4;stroke-dasharray:none;stroke-opacity:1"
       d="m 297.95414,113.06861 c 1.66759,-59.896821 -64.52256,-49.583956 -61.6091,-5.90474"
       id="path4300"
       inkscape:connector-curvature="0"
       sodipodi:nodetypes="cc" />
    <path
       style="display:inline;fill:none;fill-rule:evenodd;stroke:#000000;stroke-width:1.77165354;stroke-linecap:butt;stroke-linejoin:miter;stroke-miterlimit:4;stroke-dasharray:none;stroke-opacity:1"
       d="M 193.70734,106.84911 C 191.44429,66.027233 137.99645,65.014944 130.65467,102.94978"
       id="path4302"
       inkscape:connector-curvature="0"
       sodipodi:nodetypes="cc" />
    <path
       style="display:inline;fill:none;fill-rule:evenodd;stroke:#000000;stroke-width:1.77165354;stroke-linecap:butt;stroke-linejoin:miter;stroke-miterlimit:4;stroke-dasharray:none;stroke-opacity:1"
       d="m 298.0112,111.77312 c -12.78168,43.7269 -64.3672,24.3116 -61.7166,-4.56253"
       id="path4304"
       inkscape:connector-curvature="0"
       sodipodi:nodetypes="cc" />
    <path
       style="display:inline;fill:none;fill-rule:evenodd;stroke:#000000;stroke-width:1.77165354;stroke-linecap:butt;stroke-linejoin:miter;stroke-miterlimit:4;stroke-dasharray:none;stroke-opacity:1"
       d="m 194.24688,106.84911 c 5.91042,30.36591 -57.47693,59.27523 -63.59221,-2.24558 l 0.53954,-5.512521"
       id="path4306"
       inkscape:connector-curvature="0"
       sodipodi:nodetypes="ccc" />
    <path
       style="display:inline;fill:none;fill-rule:evenodd;stroke:#000000;stroke-width:1.77165354;stroke-linecap:butt;stroke-linejoin:miter;stroke-miterlimit:4;stroke-dasharray:none;stroke-opacity:1"
       d="m 114.65119,118.30423 c -14.853986,-20.536056 -43.177898,-25.282647 -48.824915,0.0242 -4.302946,18.86475 27.394738,24.47575 37.772485,16.88974 -6.002335,12.07738 -8.933446,25.42759 -14.101733,50.49547"
       id="path4310"
       inkscape:connector-curvature="0"
       sodipodi:nodetypes="cccc" />
    <path
       style="display:inline;fill:none;fill-rule:evenodd;stroke:#000000;stroke-width:1.77165354;stroke-linecap:butt;stroke-linejoin:miter;stroke-miterlimit:4;stroke-dasharray:none;stroke-opacity:1"
       d="m 389.24565,229.75626 c 34.36134,19.78807 46.72984,-13.41682 -0.68487,-18.26506 -22.06352,18.49592 -0.71862,31.89474 2.93166,35.09731 l 17.69099,8.99909 c 16.59943,2.25228 25.30893,-1.64923 26.75991,-11.21206 6.07105,-4.88215 11.75767,-7.20882 11.90876,-18.48198 -3.18257,-3.47296 0.35149,-10.34236 -11.87661,-9.55412 -0.3148,-16.16385 -8.84293,-14.19436 -16.19842,-14.81385 13.58673,-14.14717 13.97821,-33.54517 6.92622,-38.36949 -7.052,-4.82437 -21.54748,4.92493 -37.73474,49.07237"
       id="path4374"
       inkscape:connector-curvature="0"
       sodipodi:nodetypes="ccccccccsc" />
    <path
       style="display:inline;fill:none;fill-rule:evenodd;stroke:#000000;stroke-width:1.77165354;stroke-linecap:butt;stroke-linejoin:miter;stroke-miterlimit:4;stroke-dasharray:none;stroke-opacity:1"
       d="m 437.47207,216.95892 c -4.38404,5.88715 -8.21112,10.72696 -15.53496,22.14193 4.92114,5.95371 10.07704,8.10809 15.50281,5.89416"
       id="path4376"
       inkscape:connector-curvature="0"
       sodipodi:nodetypes="ccc" />
    <path
       style="display:inline;fill:none;fill-rule:evenodd;stroke:#000000;stroke-width:1.77165354;stroke-linecap:butt;stroke-linejoin:miter;stroke-miterlimit:4;stroke-dasharray:none;stroke-opacity:1"
       d="m 419.4001,239.58449 -7.66294,-2.92008"
       id="path4378"
       inkscape:connector-curvature="0"
       sodipodi:nodetypes="cc" />
    <path
       style="display:inline;fill:none;fill-rule:evenodd;stroke:#000000;stroke-width:1.77165354;stroke-linecap:butt;stroke-linejoin:miter;stroke-miterlimit:4;stroke-dasharray:none;stroke-opacity:1"
       d="m 421.85792,200.42249 -8.54855,16.21664"
       id="path4380"
       inkscape:connector-curvature="0" />
    <path
       style="display:inline;fill:none;fill-rule:evenodd;stroke:#000000;stroke-width:1.77165354;stroke-linecap:butt;stroke-linejoin:miter;stroke-miterlimit:4;stroke-dasharray:none;stroke-opacity:1"
       d="M 99.755419,124.86646 C 97.884309,111.37975 89.446559,111.33613 83.492743,112.44155"
       id="path4382"
       inkscape:connector-curvature="0"
       sodipodi:nodetypes="cc" />
    <path
       style="display:inline;fill:none;fill-rule:evenodd;stroke:#000000;stroke-width:1.77165354;stroke-linecap:butt;stroke-linejoin:miter;stroke-miterlimit:4;stroke-dasharray:none;stroke-opacity:1"
       d="m 177.66545,109.7819 c -1.0386,-10.125675 -13.91138,-9.10258 -13.63661,0.48394"
       id="path4384"
       inkscape:connector-curvature="0"
       sodipodi:nodetypes="cc" />
    <path
       style="display:inline;fill:none;fill-rule:evenodd;stroke:#000000;stroke-width:1.77165354;stroke-linecap:butt;stroke-linejoin:miter;stroke-miterlimit:4;stroke-dasharray:none;stroke-opacity:1"
       d="m 177.66545,109.7819 c 0.42355,4.53286 -9.67193,10.14196 -13.63661,0.48394"
       id="path4386"
       inkscape:connector-curvature="0"
       sodipodi:nodetypes="cc" />
    <path
       style="display:inline;fill:none;fill-rule:evenodd;stroke:#000000;stroke-width:1.77165354;stroke-linecap:butt;stroke-linejoin:miter;stroke-miterlimit:4;stroke-dasharray:none;stroke-opacity:1"
       d="m 97.078309,116.78696 c -1.111177,-1.92603 -11.281027,3.56867 -9.657469,6.39737"
       id="path4388"
       inkscape:connector-curvature="0"
       sodipodi:nodetypes="cc" />
    <path
       style="display:inline;fill:none;fill-rule:evenodd;stroke:#000000;stroke-width:1.77165354;stroke-linecap:butt;stroke-linejoin:miter;stroke-miterlimit:4;stroke-dasharray:none;stroke-opacity:1"
       d="m 281.68636,196.93785 c 17.65842,-2.48806 45.99476,22.06398 35.8764,44.36042 l -21.76426,-3.17749 c 1.17889,15.44408 -4.26453,18.78116 -8.45393,24.41086 l -26.51634,-7.79724 c 3.47812,11.57062 -1.9456,19.32113 -9.21094,26.28136 l -16.7577,-6.22846 -16.26531,8.5029 -18.60912,-14.49484 -21.65726,10.84928 c -9.67408,-7.12099 -11.13943,-16.41102 -13.87459,-25.36553 l -21.81219,8.1253 c -4.72534,-9.66102 -15.15749,-18.45418 -9.97258,-29.62231 l -22.30087,5.60472 c -3.31505,-35.02505 13.26387,-35.86502 29.27375,-41.80497 l 0.71766,0"
       id="path4340-0"
       inkscape:connector-curvature="0"
       sodipodi:nodetypes="cccccccccccccccc" />
    <path
       style="display:inline;fill:none;fill-rule:evenodd;stroke:#000000;stroke-width:1.77165354;stroke-linecap:butt;stroke-linejoin:miter;stroke-miterlimit:4;stroke-dasharray:none;stroke-opacity:1"
       d="m 306.55326,206.35185 c 3.99846,-6.69743 4.13135,-11.14989 4.7941,-15.91006"
       id="path4342"
       inkscape:connector-curvature="0"
       sodipodi:nodetypes="cc" />
    <path
       style="display:inline;fill:none;fill-rule:evenodd;stroke:#000000;stroke-width:1.77165354;stroke-linecap:butt;stroke-linejoin:miter;stroke-miterlimit:4;stroke-dasharray:none;stroke-opacity:1"
       d="m 123.45649,204.56326 c -7.36504,-14.76578 -7.02166,-18.62049 -8.14802,-25.01718"
       id="path4344"
       inkscape:connector-curvature="0"
       sodipodi:nodetypes="cc" />
    <path
       style="display:inline;fill:none;fill-rule:evenodd;stroke:#000000;stroke-width:1.77165354;stroke-linecap:butt;stroke-linejoin:miter;stroke-miterlimit:4;stroke-dasharray:none;stroke-opacity:1"
       d="m 125.58298,179.26513 c -6.36885,-0.9279 -12.32805,-3.39363 -22.23998,8.9796"
       id="path4346"
       inkscape:connector-curvature="0"
       sodipodi:nodetypes="cc" />
    <path
       style="fill:none;fill-rule:evenodd;stroke:#000000;stroke-width:1.77165354;stroke-linecap:butt;stroke-linejoin:miter;stroke-miterlimit:4;stroke-dasharray:none;stroke-opacity:1"
       d="m 89.876563,181.21746 c -3.954389,31.17561 -4.650603,61.24156 -4.31629,90.95655"
       id="path3465"
       inkscape:connector-curvature="0"
       sodipodi:nodetypes="cc" />
    <path
       style="fill:none;fill-rule:evenodd;stroke:#000000;stroke-width:1.77165354;stroke-linecap:butt;stroke-linejoin:miter;stroke-miterlimit:4;stroke-dasharray:none;stroke-opacity:1"
       d="m 84.4812,271.07151 86.32581,0.55126"
       id="path3467"
       inkscape:connector-curvature="0"
       sodipodi:nodetypes="cc" />
    <path
       style="fill:none;fill-rule:evenodd;stroke:#000000;stroke-width:1.77165354;stroke-linecap:butt;stroke-linejoin:miter;stroke-miterlimit:4;stroke-dasharray:none;stroke-opacity:1"
       d="m 86.099809,269.969 c -5.393495,6.92916 -10.91032,18.84955 -15.617793,25.76162 -6.576769,9.65678 -14.745322,15.82297 -1.32304,25.17725 6.209735,4.3277 8.588311,6.88289 15.86176,10.25009"
       id="path3469"
       inkscape:connector-curvature="0"
       sodipodi:nodetypes="cssc" />
    <path
       style="fill:none;fill-rule:evenodd;stroke:#000000;stroke-width:1.77165354;stroke-linecap:butt;stroke-linejoin:miter;stroke-miterlimit:4;stroke-dasharray:none;stroke-opacity:1"
       d="m 88.797491,287.05781 c -3.670034,5.80682 -5.044512,11.0273 -14.027944,18.19131 4.316291,2.94001 7.193816,5.14502 8.632581,6.61503"
       id="path3471"
       inkscape:connector-curvature="0"
       sodipodi:nodetypes="ccc" />
    <path
       style="fill:none;fill-rule:evenodd;stroke:#000000;stroke-width:1.77165354;stroke-linecap:butt;stroke-linejoin:miter;stroke-miterlimit:4;stroke-dasharray:none;stroke-opacity:1"
       d="m 84.4812,295.32659 -0.539536,47.9589 260.596026,-1.1025"
       id="path3475"
       inkscape:connector-curvature="0" />
    <path
       style="fill:none;fill-rule:evenodd;stroke:#000000;stroke-width:1.77165354;stroke-linecap:butt;stroke-linejoin:miter;stroke-miterlimit:4;stroke-dasharray:none;stroke-opacity:1"
       d="m 111.45802,271.07151 c 2.15814,0.55125 107.36771,52.36892 107.36771,52.36892 l 103.05144,-55.12518"
       id="path3477"
       inkscape:connector-curvature="0"
       sodipodi:nodetypes="ccc" />
    <path
       style="fill:none;fill-rule:evenodd;stroke:#000000;stroke-width:1.77165354;stroke-linecap:butt;stroke-linejoin:miter;stroke-miterlimit:4;stroke-dasharray:none;stroke-opacity:1"
       d="m 260.90957,269.969 82.54905,-2.20501"
       id="path3479"
       inkscape:connector-curvature="0" />
    <path
       style="fill:none;fill-rule:evenodd;stroke:#000000;stroke-width:1.77165354;stroke-linecap:butt;stroke-linejoin:miter;stroke-miterlimit:4;stroke-dasharray:none;stroke-opacity:1"
       d="m 115.7743,283.7503 c 3.23723,2.20501 23.7396,23.70383 23.7396,23.70383 l 18.34423,-6.06377 0,21.49882 34.53033,-1.65375"
       id="path3481"
       inkscape:connector-curvature="0" />
    <path
       style="fill:none;fill-rule:evenodd;stroke:#000000;stroke-width:1.77165354;stroke-linecap:butt;stroke-linejoin:miter;stroke-miterlimit:4;stroke-dasharray:none;stroke-opacity:1"
       d="m 314.8632,280.99404 -23.7396,26.46009 -21.04192,-4.41002 2.69769,17.64006 -34.53033,4.96126"
       id="path3483"
       inkscape:connector-curvature="0" />
    <path
       style="fill:none;fill-rule:evenodd;stroke:#000000;stroke-width:1.77165354;stroke-linecap:butt;stroke-linejoin:miter;stroke-miterlimit:4;stroke-dasharray:none;stroke-opacity:1"
       d="m 322.41671,131.60479 c 14.77605,40.79268 22.75991,85.6712 20.50237,136.71046"
       id="path3487"
       inkscape:connector-curvature="0"
       sodipodi:nodetypes="cc" />
    <path
       style="fill:none;fill-rule:evenodd;stroke:#000000;stroke-width:1.77165354;stroke-linecap:butt;stroke-linejoin:miter;stroke-miterlimit:4;stroke-dasharray:none;stroke-opacity:1"
       d="m 116.85338,343.28549 c 24.71035,17.38323 58.74974,25.23485 99.27468,26.4601 60.79493,-2.78095 74.61658,-15.84615 97.11653,-27.01134"
       id="path3489"
       inkscape:connector-curvature="0"
       sodipodi:nodetypes="ccc" />
    <path
       style="fill:none;fill-rule:evenodd;stroke:#000000;stroke-width:1.77165354;stroke-linecap:butt;stroke-linejoin:miter;stroke-miterlimit:4;stroke-dasharray:none;stroke-opacity:1"
       d="m 343.45862,267.76399 c 2.15815,68.35523 1.61861,76.62401 1.61861,76.62401"
       id="path3493"
       inkscape:connector-curvature="0" />
    <path
       style="fill:none;fill-rule:evenodd;stroke:#000000;stroke-width:1.77165354;stroke-linecap:butt;stroke-linejoin:miter;stroke-miterlimit:4;stroke-dasharray:none;stroke-opacity:1"
       d="m 303.53294,310.76164 21.04191,0.55125"
       id="path3495"
       inkscape:connector-curvature="0" />
    <path
       style="fill:none;fill-rule:evenodd;stroke:#000000;stroke-width:1.77165354;stroke-linecap:butt;stroke-linejoin:miter;stroke-miterlimit:4;stroke-dasharray:none;stroke-opacity:1"
       d="m 324.57485,310.21038 c -2.11646,-5.68191 -3.49464,-11.29992 -2.69768,-19.84506 3.5969,-4.41 7.19381,-4.41001 10.79072,0 l -1.61861,42.44639 c -1.9783,3.20218 -3.9566,2.09546 -5.9349,-0.55125 z"
       id="path3501"
       inkscape:connector-curvature="0"
       sodipodi:nodetypes="cccccc" />
    <path
       style="fill:none;fill-rule:evenodd;stroke:#000000;stroke-width:1.77165354;stroke-linecap:butt;stroke-linejoin:miter;stroke-miterlimit:4;stroke-dasharray:none;stroke-opacity:1"
       d="m 332.12836,310.76164 5.9349,0"
       id="path3503"
       inkscape:connector-curvature="0" />
    <path
       style="fill:none;fill-rule:evenodd;stroke:#000000;stroke-width:1.77165354;stroke-linecap:butt;stroke-linejoin:miter;stroke-miterlimit:4;stroke-dasharray:none;stroke-opacity:1"
       d="m 119.01153,445.81834 c 24.06627,1.50968 43.26997,8.86426 90.64209,-17.64006"
       id="path3507"
       inkscape:connector-curvature="0"
       sodipodi:nodetypes="cc" />
    <path
       style="fill:none;fill-rule:evenodd;stroke:#000000;stroke-width:1.77165354;stroke-linecap:butt;stroke-linejoin:miter;stroke-miterlimit:4;stroke-dasharray:none;stroke-opacity:1"
       d="m 225.40571,426.28423 c -3.1534,11.75825 86.78925,26.63519 89.99702,19.53411"
       id="path3509"
       inkscape:connector-curvature="0"
       sodipodi:nodetypes="cc" />
    <path
       style="fill:none;fill-rule:evenodd;stroke:#000000;stroke-width:1.77165354;stroke-linecap:butt;stroke-linejoin:miter;stroke-miterlimit:4;stroke-dasharray:none;stroke-opacity:1"
       d="m 120.09059,446.36958 72.29787,-30.8701 0.95407,-47.55515"
       id="path3511"
       inkscape:connector-curvature="0"
       sodipodi:nodetypes="ccc" />
    <path
       style="fill:none;fill-rule:evenodd;stroke:#000000;stroke-width:1.77165354;stroke-linecap:butt;stroke-linejoin:miter;stroke-miterlimit:4;stroke-dasharray:none;stroke-opacity:1"
       d="m 209.65362,428.72952 -7.55351,-10.24628 c -0.17985,-16.53755 -0.35969,-25.74928 -0.53954,-49.61265"
       id="path3513"
       inkscape:connector-curvature="0"
       sodipodi:nodetypes="ccc" />
    <path
       style="fill:none;fill-rule:evenodd;stroke:#000000;stroke-width:1.77165354;stroke-linecap:butt;stroke-linejoin:miter;stroke-miterlimit:4;stroke-dasharray:none;stroke-opacity:1"
       d="m 230.156,369.19433 2.15814,50.16391 -7.01397,7.16629"
       id="path3515"
       inkscape:connector-curvature="0" />
    <path
       style="fill:none;fill-rule:evenodd;stroke:#000000;stroke-width:1.77165354;stroke-linecap:butt;stroke-linejoin:miter;stroke-miterlimit:4;stroke-dasharray:none;stroke-opacity:1"
       d="m 238.24904,368.01808 3.23722,46.93016 75.53508,31.42134"
       id="path3517"
       inkscape:connector-curvature="0"
       sodipodi:nodetypes="ccc" />
    <path
       style="fill:none;fill-rule:evenodd;stroke:#000000;stroke-width:1.77165354;stroke-linecap:butt;stroke-linejoin:miter;stroke-miterlimit:4;stroke-dasharray:none;stroke-opacity:1"
       d="m 169.18839,67.659584 c 33.03709,-14.502516 60.42375,-10.508077 86.32581,-1.653755 l 0,0"
       id="path3519"
       inkscape:connector-curvature="0"
       sodipodi:nodetypes="ccc" />
    <path
       style="fill:none;fill-rule:evenodd;stroke:#000000;stroke-width:1.77165354;stroke-linecap:butt;stroke-linejoin:miter;stroke-miterlimit:4;stroke-dasharray:none;stroke-opacity:1"
       d="m 391.47734,246.26517 c -9.22323,11.34031 -17.57215,23.57392 -25.3582,36.38263 -8.75861,-4.57203 -16.23908,-8.47402 -22.12099,-11.57629"
       id="path3521"
       inkscape:connector-curvature="0"
       sodipodi:nodetypes="ccc" />
    <path
       style="fill:none;fill-rule:evenodd;stroke:#000000;stroke-width:1.77165354;stroke-linecap:butt;stroke-linejoin:miter;stroke-miterlimit:4;stroke-dasharray:none;stroke-opacity:1"
       d="m 342.95591,285.09235 c 5.82126,5.01932 16.7069,9.94937 25.32138,13.54174 16.06582,-13.97105 29.43393,-28.32047 40.46522,-42.99763"
       id="path3523"
       inkscape:connector-curvature="0"
       sodipodi:nodetypes="ccc" />
    <path
       style="fill:none;fill-rule:evenodd;stroke:#000000;stroke-width:1.77165353;stroke-linecap:butt;stroke-linejoin:miter;stroke-miterlimit:4;stroke-dasharray:none;stroke-opacity:1"
       d="m 103.97489,107.02546 21.31515,6.32594"
       id="path9380"
       inkscape:path-effect="#path-effect9382"
       inkscape:original-d="m 103.97489,107.02546 21.31515,6.32594"
       inkscape:connector-curvature="0"
       sodipodi:nodetypes="cc" />
    <path
       style="fill:none;fill-rule:evenodd;stroke:#000000;stroke-width:1.77165354;stroke-linecap:butt;stroke-linejoin:miter;stroke-opacity:1;stroke-miterlimit:4;stroke-dasharray:none"
       d="m 240.95455,38.962692 2.3324,0.717661"
       id="path9984"
       inkscape:path-effect="#path-effect9986"
       inkscape:original-d="m 240.95455,38.962692 c 0.71766,0 2.3324,0.717661 2.3324,0.717661"
       inkscape:connector-curvature="0" />
    <path
       style="fill:#7a3907;fill-opacity:1;fill-rule:evenodd;stroke:#000000;stroke-width:1.53321421;stroke-miterlimit:4;stroke-dasharray:none;stroke-opacity:0"
       d="m 94.672272,34.59405 c -13.277483,0.595544 -25.280609,7.615849 -35.924834,14.903042 12.989081,3.135534 27.186876,3.252621 40.29078,6.837112 -0.614954,1.175419 -4.430249,0.431234 -5.883802,0.681175 -18.199075,-1.305085 -38.073011,0.887658 -52.249387,13.540691 -7.080516,6.21541 -13.718632,13.591461 -17.740992,22.118771 5.559622,1.062263 12.143943,-0.341683 18.023266,-0.246778 9.174191,0.01426 18.586843,-2.036532 27.630718,-0.983733 -0.638702,2.306495 -5.12834,1.221858 -7.093516,1.858497 -13.654021,0.335903 -28.294346,4.242955 -37.003736,15.534303 -5.711675,7.28567 -11.290593,15.1995 -14.336805,23.93918 10.30054,0.1694 20.819832,-3.37394 31.283374,-3.39404 2.978147,1.03216 -0.558738,2.13405 -1.977607,1.79336 -4.485974,2.26854 -4.816901,8.55777 -6.522722,12.81051 -2.223852,9.15553 -4.824209,19.0624 -3.720267,28.25949 8.312943,-6.50879 19.354362,-7.83773 29.299006,-10.47794 3.969691,-0.31208 10.019917,-3.37754 12.081994,1.87451 5.921117,7.59469 11.10782,16.39768 17.071649,23.50478 3.217088,-16.41474 7.471063,-32.75 12.506249,-48.59842 -10.876343,1.87694 -23.660544,0.83762 -32.016946,-7.2208 -8.257148,-9.27486 -1.886189,-24.47858 8.241718,-29.46296 1.966899,-1.86146 5.412678,-0.63156 7.141359,-2.280167 -1.301377,-3.100574 1.158648,-7.557656 4.896689,-5.932819 11.34298,1.504162 22.62117,4.708565 33.9354,5.642095 2.99249,-3.49445 3.11592,-8.764256 6.20156,-12.37441 4.45831,-7.352251 11.25434,-12.891916 18.76192,-16.835012 1.55161,-2.477381 -3.03419,-4.728316 -3.96029,-6.690058 C 131.70717,50.202506 116.00809,40.779216 99.352606,34.927032 97.816712,34.603258 96.236898,34.548383 94.672272,34.59405 Z"
       id="path7386"
       inkscape:connector-curvature="0" />
    <path
       style="fill:#7a3907;fill-opacity:1;fill-rule:evenodd;stroke:#000000;stroke-width:1.53321421;stroke-miterlimit:4;stroke-dasharray:none;stroke-opacity:0"
       d="m 180.94833,25.926386 c -9.23978,2.14257 -18.26131,8.530838 -20.11412,18.37315 -0.7277,3.404583 -1.37899,7.363705 -1.00571,10.533715 8.53029,-6.100254 17.92485,-11.23499 27.05434,-16.17581 -2.09663,-3.964269 -2.60322,-9.546832 -5.69112,-12.734436 l -0.0254,0 -0.21804,0.0034 z"
       id="path7388"
       inkscape:connector-curvature="0" />
    <path
       style="fill:#7a3907;fill-opacity:1;fill-rule:evenodd;stroke:#000000;stroke-width:1.53321421;stroke-miterlimit:4;stroke-dasharray:none;stroke-opacity:0"
       d="m 247.41958,23.044489 c -1.1048,5.006848 -5.21097,10.155429 -4.08874,15.405049 8.90642,2.568921 16.85983,8.135947 23.90368,14.154257 1.96516,-0.502978 0.89431,-4.49447 0.94317,-6.135652 -2.28988,-10.573466 -11.17421,-19.344692 -20.75811,-23.423654 z"
       id="path7390"
       inkscape:connector-curvature="0" />
    <path
       style="fill:#7a3907;fill-opacity:1;fill-rule:evenodd;stroke:#000000;stroke-width:1.53321421;stroke-miterlimit:4;stroke-dasharray:none;stroke-opacity:0"
       d="m 332.99925,29.928927 c -10.32404,1.10894 -19.44378,7.085812 -28.68544,11.41434 -9.55748,5.393247 -20.10227,12.225922 -24.01356,22.87601 13.28236,4.647377 23.58865,16.546963 25.88975,30.4281 11.1016,-0.615992 22.5809,-3.509691 33.7258,-3.282488 1.4146,1.677049 -0.30374,5.97261 3.14389,5.506874 9.28696,1.097149 16.44542,10.335607 17.3573,19.346747 1.29545,8.399 -5.18243,15.20693 -12.46399,18.15003 -6.7811,3.59087 -14.72585,3.89814 -21.96665,1.69364 -1.8139,1.3155 1.50393,4.51279 1.32686,6.43821 4.42337,13.70566 7.26567,28.01376 11.16756,41.76638 7.45492,-9.35466 14.01963,-19.70029 21.09278,-29.45112 13.58817,1.57068 27.20576,5.58663 39.48115,10.99853 0.0173,-12.55999 -2.72562,-25.20694 -7.35771,-36.84941 -0.73601,-2.86255 -4.11646,-3.07368 -6.05114,-4.10733 3.52474,-3.62717 8.57266,0.56905 12.72767,0.33636 6.39986,0.72919 13.18365,2.75813 19.47182,2.33425 -1.73322,-7.33344 -7.17473,-13.45353 -11.18561,-19.75479 -6.87527,-10.691613 -18.45544,-18.248947 -31.28392,-18.997853 -5.26574,-1.040613 -11.35793,0.115632 -16.12848,-2.18382 1.81211,-2.377468 6.22498,-0.06774 8.91338,-0.650207 12.5277,0.448376 25.56027,1.618997 37.77673,1.944949 -7.01761,-12.179335 -16.98677,-23.256172 -29.54478,-29.807619 -9.52892,-5.247878 -20.39648,-6.73676 -31.1334,-6.278782 -4.96101,-0.385095 -11.96015,0.350397 -15.89577,-1.182192 13.39641,-3.025781 27.3542,-3.880017 40.95337,-6.105226 -10.7799,-6.791504 -23.80659,-14.324731 -37.31761,-14.583583 z"
       id="path7392"
       inkscape:connector-curvature="0" />
    <path
       style="fill:#7a3907;fill-opacity:1;fill-rule:evenodd;stroke:#000000;stroke-width:1.53321421;stroke-miterlimit:4;stroke-dasharray:none;stroke-opacity:0"
       d="m 282.27786,197.65872 c -6.06201,15.60065 -19.2503,27.55367 -34.75686,33.42156 -18.26189,7.24937 -38.67153,8.85788 -57.9929,5.71984 -16.39192,-3.5487 -31.93591,-12.00102 -42.10781,-25.58719 -3.53847,-3.85997 -5.23846,-9.29663 -8.05241,-13.32941 -5.65133,1.51269 -11.42059,3.7756 -16.28737,6.74922 -5.21851,1.58262 -8.12152,7.42252 -10.29032,12.08707 -1.37946,6.40896 -2.31353,13.56195 -0.76231,19.91974 7.06642,-0.93161 14.3424,-3.89678 21.5762,-4.4961 -0.88836,4.34941 -2.33135,9.13458 0.40905,13.29729 2.71364,5.39794 5.90582,10.71154 9.27615,15.61803 7.14554,-2.26268 14.21539,-6.09918 21.58127,-7.1177 3.12227,7.32974 4.71129,15.78536 10.67955,21.63852 3.02371,6.21108 8.60011,-1.12465 12.91945,-2.09197 4.3091,-1.03688 9.11571,-6.87572 13.10349,-4.80984 5.80917,4.2545 11.31789,9.64254 17.32674,13.25573 5.67065,-2.34922 11.10235,-6.73912 16.78521,-8.01281 5.16299,1.84994 10.30224,4.0179 15.48021,5.6701 6.44027,-5.48071 11.04268,-13.97938 8.99558,-22.61233 -0.72884,-3.05378 0.28949,-4.40274 3.45655,-2.45904 7.78517,2.15302 15.54818,4.70964 23.31889,6.70329 6.63794,-6.1928 8.48913,-15.54531 7.83267,-24.26709 7.48922,0.83188 15.18182,2.95473 22.67657,2.27171 2.34527,-9.7913 -0.29698,-20.60967 -7.61971,-27.73213 -7.1434,-7.57619 -16.85199,-13.88232 -27.54789,-13.83649 z"
       id="path7394"
       inkscape:connector-curvature="0" />
    <path
       style="fill:#c8deff;fill-opacity:1;fill-rule:evenodd;stroke:#000000;stroke-width:1.53321421;stroke-miterlimit:4;stroke-dasharray:none;stroke-opacity:0"
       d="m 331.99016,268.72534 c -5.88869,0.25386 -11.94509,-0.0683 -16.7882,3.90246 -31.87749,16.91962 -63.52122,34.33857 -95.65312,50.74372 -29.46839,-12.40588 -57.6977,-27.69868 -86.6438,-41.30681 -7.57716,-3.3397 -14.92003,-7.79654 -22.66869,-10.40629 -8.39747,0.21539 -16.865323,0.17936 -25.218856,0.55393 -6.556699,12.14436 -14.428087,23.53024 -21.442667,35.36536 -3.282213,6.67847 4.412951,11.49321 8.880956,14.87045 3.317434,1.86281 6.648725,5.73917 10.386343,6.07696 0.498529,-5.2259 0.771925,-10.5392 0.907671,-15.75493 -2.31341,-3.28838 -13.009414,-6.05299 -7.343723,-9.84033 5.346905,-4.28851 8.048743,-10.9317 12.321545,-15.92772 -0.524134,3.73272 -3.82195,7.02644 -3.237904,11.20905 -0.473154,14.40289 -1.39604,29.10568 -0.549973,43.37121 20.771508,1.62335 41.752368,0.54127 62.600548,0.88085 65.70506,-0.22802 131.64025,-0.13834 197.19445,-1.56372 -0.66209,-24.23072 -1.08042,-48.70987 -2.14325,-72.78438 -3.53378,0.2034 -7.06755,0.40679 -10.60133,0.61019 z m -17.91678,13.32602 c -7.27719,9.03585 -14.86027,17.94303 -23.25294,25.94891 -6.46825,-1.0599 -13.04223,-3.02799 -19.38054,-3.78957 -0.60932,5.57435 2.39532,11.30268 1.16797,16.68627 -10.80783,2.42595 -21.99253,3.68804 -32.98378,5.07586 -2.87313,-0.61167 2.04452,-1.42003 2.85372,-1.48792 9.66572,-2.05954 20.03357,-1.83276 29.31029,-5.19369 -0.33529,-5.54709 -2.01098,-11.29767 -2.13312,-16.715 7.37388,0.73651 14.67042,3.5797 22.05792,3.41264 7.22795,-8.32249 14.54688,-16.61293 22.54303,-24.20794 l -0.18255,0.27044 z m -197.36854,1.90324 c 8.25139,6.99467 15.32788,15.33167 23.12617,22.72896 5.99789,-2.00216 11.98866,-4.08228 18.00467,-5.99367 0.60402,7.01556 0.1973,14.27486 0.87218,21.15194 11.01258,0.24889 22.10942,-1.43899 33.05983,-0.79443 -11.21495,2.11455 -22.8071,1.60506 -34.16357,2.7078 -0.50511,-6.85518 0.98393,-14.32722 -0.95838,-20.90178 -6.15637,0.83322 -11.98169,4.7666 -18.20075,4.49441 -7.16145,-7.69448 -15.54101,-15.34557 -21.74015,-23.39323 z m 210.78416,2.83795 c 5.57511,-0.732 5.38833,6.41873 5.36752,10.0941 0.17693,4.40349 -0.24957,9.01133 0.22724,13.27209 0.55672,0.24536 5.56294,-0.61956 4.59244,0.9364 -2.23036,1.22742 -6.58602,-0.54355 -5.32936,3.61336 -0.93845,6.36523 0.77336,13.56836 -1.94721,19.46548 -3.00806,3.14793 -6.87588,-1.95671 -5.77056,-5.09783 -0.17557,-5.85629 -0.43705,-11.89481 -1.31841,-17.58549 -6.29704,-0.44168 -13.4856,0.86018 -19.39237,-0.81977 6.42047,-1.45841 13.63011,0.72432 19.83354,-0.73527 -1.72208,-6.75926 -4.55965,-14.82598 -0.89416,-21.37844 1.10373,-1.37107 2.95177,-1.78113 4.63133,-1.76463 z"
       id="path7442"
       inkscape:connector-curvature="0" />
    <path
       style="fill:#c8deff;fill-opacity:1;fill-rule:evenodd;stroke:#000000;stroke-width:1.53321421;stroke-miterlimit:4;stroke-dasharray:none;stroke-opacity:0"
       d="m 391.47894,247.98413 c -7.49076,7.8335 -13.20088,17.61262 -19.43178,26.58916 -2.12691,2.5561 -3.74851,6.48658 -6.36331,8.26405 -7.14669,-2.94521 -13.87163,-7.71177 -21.00827,-10.16355 -0.41096,4.25938 -1.82589,9.76583 1.09022,13.3835 6.74784,5.08048 14.84004,8.23048 22.36724,11.81831 14.35871,-12.417 27.714,-26.38246 38.93857,-41.58045 -3.9327,-4.01902 -9.74446,-6.24336 -14.9453,-8.29243 -0.21383,-0.0445 -0.43191,-0.0347 -0.64737,-0.0186 z"
       id="path7444"
       inkscape:connector-curvature="0" />
    <path
       style="fill:#000000;fill-opacity:1;fill-rule:evenodd;stroke:#000000;stroke-width:1.53321421;stroke-miterlimit:4;stroke-dasharray:none;stroke-opacity:0"
       d="m 298.24238,342.77404 c -59.00231,1.37165 -118.04159,-0.0304 -177.03637,1.41644 -2.19964,0.59374 2.21425,2.39555 2.8633,2.99176 23.86469,13.79323 51.59754,19.02279 78.75881,21.26665 33.72786,1.10608 68.77981,-3.11806 98.50068,-20.18488 2.20622,-1.80311 6.90181,-2.66571 8.04396,-5.06741 -3.5976,-0.80599 -7.46621,-0.28183 -11.13038,-0.42256 z"
       id="path7472"
       inkscape:connector-curvature="0" />
    <path
       style="fill:#000000;fill-opacity:1;fill-rule:evenodd;stroke:#000000;stroke-width:1.53321421;stroke-miterlimit:4;stroke-dasharray:none;stroke-opacity:0"
       d="m 193.55261,369.67287 c -0.29512,15.50273 0.6938,31.11969 -1.08515,46.54306 -22.5294,9.65718 -45.14038,19.12848 -67.59696,28.9525 9.45926,2.12763 20.43944,1.57807 30.51076,1.38012 18.58459,-1.32902 35.9487,-9.36099 52.11771,-18.07484 0.55052,-2.32568 -2.89199,-4.57627 -3.82538,-6.70408 -4.08286,-5.26725 -1.32571,-12.85921 -2.35818,-19.16319 -0.36882,-11.01652 -0.22338,-22.25737 -0.91723,-33.13302 -2.23769,0.14841 -4.75129,-0.28508 -6.84557,0.19945 z"
       id="path7474"
       inkscape:connector-curvature="0" />
    <path
       style="fill:#000000;fill-opacity:1;fill-rule:evenodd;stroke:#000000;stroke-width:1.53321421;stroke-miterlimit:4;stroke-dasharray:none;stroke-opacity:0"
       d="m 234.40625,369.33651 c -1.76374,0.12704 -4.48673,0.002 -3.3839,2.71118 0.48672,15.92721 1.25287,31.84412 1.90323,47.76512 -1.6982,2.56641 -8.37677,5.89811 -5.20432,9.65816 9.11662,6.56911 20.85407,7.95044 31.45917,10.92585 17.53406,3.68437 35.55579,7.52058 53.5306,5.97339 0.52085,-1.84773 -4.35541,-1.96237 -5.41172,-3.15881 -21.95628,-9.58159 -44.29289,-18.43843 -66.20976,-28.01132 -1.58523,-15.3317 -2.05129,-30.97191 -3.65435,-46.15937 -1.00965,0.0986 -2.0193,0.1972 -3.02895,0.2958 z"
       id="path7476"
       inkscape:connector-curvature="0" />
    <path
       style="fill:#000000;fill-opacity:1;fill-rule:evenodd;stroke:#000000;stroke-width:1.53321421;stroke-miterlimit:4;stroke-dasharray:none;stroke-opacity:0"
       d="m 170.63266,103.04245 c -5.08956,0.5304 -7.98416,8.26754 -2.84133,10.81599 4.67961,2.99026 11.54051,-2.82966 7.86817,-7.66027 -1.21155,-1.46155 -3.01807,-3.12806 -5.02684,-3.15572 z"
       id="path7478"
       inkscape:connector-curvature="0" />
    <path
       style="fill:#000000;fill-opacity:1;fill-rule:evenodd;stroke:#000000;stroke-width:1.53321421;stroke-miterlimit:4;stroke-dasharray:none;stroke-opacity:0"
       d="m 250.93702,100.75553 c -5.82648,0.6306 -6.09265,10.58343 -0.0135,11.08812 4.07185,-0.66942 8.13295,-5.55412 4.48089,-9.16799 -1.07805,-1.29385 -2.76594,-2.11691 -4.46736,-1.92013 z"
       id="path7480"
       inkscape:connector-curvature="0" />
    <path
       style="fill:#040465;fill-opacity:1;fill-rule:evenodd;stroke:#000000;stroke-width:1.53321421;stroke-miterlimit:4;stroke-dasharray:none;stroke-opacity:0"
       d="m 220.20129,290.39281 c -3.81791,0.81743 -10.50445,-1.41396 -10.47697,4.2379 -1.71279,6.77588 -4.20099,13.57442 -5.39798,20.3757 4.89133,2.25373 9.67335,5.4957 14.70191,7.13628 4.58128,-2.49467 9.74841,-4.65228 13.82127,-7.71097 -2.86275,-8.05688 -5.61503,-16.57975 -9.77986,-23.92228 -0.94125,-0.18506 -1.9157,-0.11854 -2.86837,-0.11663 z"
       id="path7488"
       inkscape:connector-curvature="0" />
    <path
       style="fill:#040465;fill-opacity:1;fill-rule:evenodd;stroke:#000000;stroke-width:1.53321421;stroke-miterlimit:4;stroke-dasharray:none;stroke-opacity:0"
       d="m 198.98174,270.34968 c -0.29148,2.88559 3.08965,5.79592 4.38121,8.42805 3.08569,2.85594 4.2476,9.41228 8.68958,9.74565 4.75973,-0.66748 10.94311,2.09901 13.85554,-3.09833 1.74043,-2.24847 5.47041,-4.41182 5.91884,-7.06691 -4.98351,0.78537 -9.58418,5.52268 -14.10696,5.55411 -6.2144,-4.44478 -11.81118,-10.3009 -18.73821,-13.56257 z"
       id="path7490"
       inkscape:connector-curvature="0" />
    <path
       style="fill:#040465;fill-opacity:1;fill-rule:evenodd;stroke:#000000;stroke-width:1.53321421;stroke-miterlimit:4;stroke-dasharray:none;stroke-opacity:0"
       d="m 267.82443,65.072401 c -16.0569,0.16228 -33.09985,10.193861 -36.85823,26.604627 -1.27677,2.104407 -1.31911,8.411892 -5.07211,6.419716 -5.90943,-2.145114 -12.68544,-4.715897 -18.47118,-0.628777 -2.39878,0.382192 -4.67818,5.807613 -7.10249,2.736533 -3.86245,-11.705378 -10.95279,-23.494284 -22.81346,-28.475847 -19.23201,-7.887521 -43.25168,3.253967 -50.42898,22.639372 -1.76168,2.304782 0.38469,7.689295 -4.03297,7.112625 -12.43396,-0.91106 -24.678946,-5.357071 -37.113084,-5.398699 -1.249609,2.991192 3.60746,4.708479 5.883802,5.047119 10.485302,3.80373 20.985442,7.65001 31.673822,10.92248 4.19722,1.22061 1.95693,7.11576 3.80647,10.2058 4.15778,15.24833 19.96466,25.33577 35.47354,24.20118 18.3782,0.14523 34.37742,-15.10877 37.06406,-32.91786 0.55619,-5.18375 3.95016,-9.75773 9.22546,-10.78894 7.57689,-2.825206 17.02851,0.0962 20.30512,7.78872 1.70891,8.39919 5.73217,16.47568 12.61442,21.88552 13.23472,11.52592 35.64656,14.09988 49.16298,1.71055 6.56679,-5.70021 10.60942,-13.70079 12.95247,-21.96158 5.95027,-0.27271 12.38873,-0.88134 16.48175,-5.80267 5.23605,-4.10168 11.34932,-7.382334 17.44013,-9.649709 1.79789,-3.250412 -0.73534,-4.89861 -4.057,-3.312059 -9.46639,0.934599 -19.0707,2.973579 -28.48055,3.200501 -3.06944,-5.334029 -3.82475,-11.962112 -7.74479,-16.976993 -6.30388,-10.192055 -18.28225,-14.83987 -29.90918,-14.561609 z m -0.0795,5.799289 c 14.60407,-1.465513 26.43284,11.412443 29.24644,24.846831 1.78986,7.842539 3.81786,16.717209 -1.11033,23.874979 -4.96569,10.90744 -15.93093,19.07329 -28.21217,18.59626 -14.43446,0.3999 -28.82923,-10.51896 -31.95778,-24.69135 -0.50735,-9.78932 -0.73772,-20.473026 5.54575,-28.651632 5.7774,-8.475451 15.98346,-14.840256 26.48809,-13.975088 z M 162.5971,75.198762 c 14.5206,-1.7152 27.66609,9.921485 30.72728,23.650149 2.39827,8.647349 3.32641,18.645129 -2.49652,26.199069 -9.46501,14.46755 -31.24073,22.42554 -46.16106,11.61379 -11.01046,-8.55817 -15.48599,-23.70537 -14.35371,-37.194223 4.31452,-13.682586 16.99125,-26.068106 32.28401,-24.268785 z"
       id="path7492"
       inkscape:connector-curvature="0" />
    <path
       style="fill:#040465;fill-opacity:1;fill-rule:evenodd;stroke:#000000;stroke-width:1.53321421;stroke-miterlimit:4;stroke-dasharray:none;stroke-opacity:0"
       d="m 332.49893,302.58636 c -0.0783,1.64807 -0.86362,5.34975 0.40566,6.01395 0.12782,-1.6042 0.93282,-5.18234 -0.40566,-6.01395 z"
       id="path7516"
       inkscape:connector-curvature="0" />
    <path
       style="fill:#ff000c;fill-opacity:1;fill-rule:evenodd;stroke:#000000;stroke-width:1.53321421;stroke-miterlimit:4;stroke-dasharray:none;stroke-opacity:0"
       d="m 326.53907,288.27322 c -5.7455,1.40736 -3.78255,8.51437 -3.30322,12.71621 1.97807,7.7341 3.249,15.58029 2.75151,23.62093 0.77662,2.65825 -1.45983,8.27171 2.2183,9.02443 3.02597,-3.62212 1.58072,-9.46283 2.35812,-13.8782 0.27412,-10.07084 0.56112,-20.25207 0.42406,-30.25793 -1.46381,-0.39972 -2.88336,-1.30902 -4.44877,-1.22544 z"
       id="path7518"
       inkscape:connector-curvature="0" />
  </g>
  <g
     inkscape:groupmode="layer"
     id="layer1"
     inkscape:label="Layer 4"
     style="display:inline">
    <path
       style="display:inline;fill:none;fill-rule:evenodd;stroke:#000000;stroke-width:1.77165354;stroke-linecap:butt;stroke-linejoin:miter;stroke-miterlimit:4;stroke-dasharray:none;stroke-opacity:1"
       d="M 150.34953,70.600755 C 141.66914,56.261439 125.82107,44.91786 108.14378,37.22318 90.064385,25.395191 65.115723,44.361609 54.431848,50.499527 l 14.275854,1.949164 30.128331,4.113633 C 75.97173,53.440498 41.902585,53.828434 20.661214,94.466059 L 68.536935,91.994714 C 46.339157,93.57036 28.531228,89.459475 7.7218947,135.0248 l 33.1558283,-5.10562 c -8.283673,-6.24166 -17.330465,52.88893 -10.53021,42.86895 3.757231,-5.53617 38.302447,-12.658 37.91177,-11.25697 l 19.856229,28.27327"
       id="path4288-9"
       inkscape:connector-curvature="0"
       sodipodi:nodetypes="cccccccccscc" />
  </g>
</svg>
